<?xml version="1.0" encoding="utf-8"?>
<!-- Generator: Adobe Illustrator 16.0.0, SVG Export Plug-In . SVG Version: 6.00 Build 0)  -->
<!DOCTYPE svg PUBLIC "-//W3C//DTD SVG 1.1//EN" "http://www.w3.org/Graphics/SVG/1.1/DTD/svg11.dtd">
<svg version="1.1" id="Calque_1" xmlns="http://www.w3.org/2000/svg" xmlns:xlink="http://www.w3.org/1999/xlink" x="0px" y="0px"
	 width="250px" height="80px" viewBox="0 0 250 80" enable-background="new 0 0 250 80" xml:space="preserve">
<g>
	<radialGradient id="SVGID_1_" cx="43.2222" cy="37.1299" r="33.6518" gradientUnits="userSpaceOnUse">
		<stop  offset="0" style="stop-color:#73E8FF"/>
		<stop  offset="0.8128" style="stop-color:#048AC5"/>
		<stop  offset="0.9951" style="stop-color:#0086C3"/>
	</radialGradient>
	<path fill="url(#SVGID_1_)" d="M22.958,40.002L10.313,27.359C8.521,31.204,7.491,35.478,7.491,40c0,4.523,1.03,8.797,2.823,12.643
		L22.958,40.002z"/>
	<radialGradient id="SVGID_2_" cx="43.2222" cy="37.1294" r="33.6521" gradientUnits="userSpaceOnUse">
		<stop  offset="0" style="stop-color:#73E8FF"/>
		<stop  offset="0.8128" style="stop-color:#048AC5"/>
		<stop  offset="0.9951" style="stop-color:#0086C3"/>
	</radialGradient>
	<path fill="url(#SVGID_2_)" d="M37.491,10c-8.852,0-16.784,3.857-22.275,9.955L29.11,33.85l14.193-14.191
		c1.699-1.7,4.451-1.7,6.153,0c1.699,1.699,1.699,4.453,0,6.153l-14.193,14.19l14.189,14.187c1.702,1.701,1.702,4.455,0,6.15
		c-1.699,1.701-4.451,1.701-6.15,0L29.11,46.152L15.216,60.043C20.707,66.143,28.638,70,37.491,70c16.568,0,30-13.432,30-30
		C67.491,23.431,54.06,10,37.491,10z"/>
</g>
<g>
	<polygon fill="#0086C3" points="179.615,29.613 177.88,11.431 169.006,12.279 170.928,32.424 	"/>
	<polygon fill="#0086C3" points="144.113,34.174 134.989,33.024 136.01,43.724 144.754,40.894 	"/>
	<polygon fill="#0086C3" points="164.28,33.906 162.278,12.92 153.403,13.768 155.216,32.763 	"/>
	<polygon fill="#0086C3" points="128.083,32.153 119.81,31.11 120.7,48.679 129.392,45.864 	"/>
	<polygon fill="#0086C3" points="116.123,50.159 119.744,31.102 112.925,30.242 109.748,50.003 102.019,28.867 87.486,27.035 
		90.484,58.457 99.169,55.646 98.756,51.325 96.194,33.083 104.474,53.93 	"/>
	<polygon fill="#0086C3" points="180.216,35.916 179.887,32.469 172.317,34.919 	"/>
	<polygon fill="#0086C3" points="201.792,16.611 202.332,22.261 211.049,19.439 210.696,15.761 221.563,14.725 220.857,7.33 
		190.405,10.236 191.111,17.63 	"/>
	<polygon fill="#0086C3" points="211.32,22.296 202.604,25.116 203.92,38.902 213.014,40.048 	"/>
	<polygon fill="#0086C3" points="155.487,35.607 155.655,37.366 159.516,36.116 	"/>
	<polygon fill="#0086C3" points="235.745,11.446 235.223,5.959 226.35,6.806 227.062,14.256 	"/>
	<polygon fill="#0086C3" points="236.019,14.302 227.333,17.113 229.723,42.156 238.785,43.299 	"/>
	<polygon fill="#0086C3" points="181.37,48.011 180.488,38.763 171.424,37.618 173.199,56.222 197.646,53.889 196.942,46.524 	"/>
	<path fill="#0086C3" d="M164.613,37.412l-8.686,2.811l0.375,3.938c0.21,2.416-0.025,4.188-0.71,5.321
		c-0.686,1.129-2.082,1.797-4.195,1.999c-2.112,0.2-3.62-0.191-4.528-1.183c-0.906-0.988-1.479-2.732-1.716-5.227l-0.126-1.319
		l-8.722,2.823c0.53,4.296,2.073,7.511,4.655,9.616c2.719,2.218,6.433,3.103,11.141,2.652c4.628-0.442,8.063-1.992,10.307-4.652
		c2.244-2.661,3.167-6.278,2.771-10.849L164.613,37.412z"/>
	<polygon fill="#0086C3" points="143.842,31.329 142.267,14.83 133.333,15.683 134.717,30.178 	"/>
	<polygon fill="#0086C3" points="229.996,45.004 230.543,50.75 239.416,49.902 239.059,46.147 	"/>
	<polygon fill="#0086C3" points="204.192,41.752 205.282,53.16 214.186,52.31 213.287,42.897 	"/>
	<polygon fill="#0086C3" points="120.949,51.544 121.863,61.12 130.767,60.271 129.664,48.723 	"/>
	<polygon fill="#0086C3" points="100.94,25.92 98.416,19.014 86.826,20.121 87.214,24.189 	"/>
	<polygon fill="#0086C3" points="105.509,56.539 107.86,62.456 113.896,61.881 115.526,53.298 	"/>
	<polygon fill="#0086C3" points="127.812,29.308 126.573,16.328 114.983,17.434 113.368,27.487 	"/>
	<polygon fill="#0086C3" points="90.757,61.315 91.02,64.063 99.892,63.216 99.442,58.504 	"/>
</g>
</svg>
